<?xml version="1.0" encoding="UTF-8" standalone="no"?>
<!DOCTYPE svg PUBLIC "-//W3C//DTD SVG 1.1//EN" "http://www.w3.org/Graphics/SVG/1.1/DTD/svg11.dtd">
<svg version="1.1" xmlns="http://www.w3.org/2000/svg" xmlns:xlink="http://www.w3.org/1999/xlink" preserveAspectRatio="xMidYMid meet" viewBox="0 0 640 640" width="100" height="100"><defs><path d="M207.15 170.06C210.87 170.44 213.57 173.75 213.19 177.46C208.69 221.82 195.85 348.16 191.35 392.51C190.97 396.22 187.66 398.93 183.95 398.55C177.24 397.87 163.84 396.51 157.13 395.82C153.42 395.45 150.72 392.13 151.09 388.42C155.6 344.07 168.43 217.73 172.94 173.37C173.31 169.66 176.63 166.96 180.34 167.34C187.04 168.02 200.45 169.38 207.15 170.06Z" id="bpWDWStKc"></path><path d="M358.47 127.05C365.29 125.52 372.06 129.81 373.59 136.63C374.87 142.35 375.95 147.14 377.23 152.85C378.76 159.67 374.47 166.44 367.64 167.97C324.16 177.72 206.08 204.19 162.6 213.94C155.78 215.47 149.01 211.18 147.48 204.35C146.2 198.64 145.12 193.85 143.84 188.13C142.31 181.31 146.6 174.54 153.42 173.01C196.9 163.27 314.99 136.8 358.47 127.05Z" id="jvWS7HFMT"></path><path d="M322.64 173.57C324.7 174.73 325.43 177.34 324.27 179.4C302.18 218.7 238.01 332.84 215.92 372.14C214.76 374.2 212.15 374.93 210.09 373.77C206.37 371.68 198.92 367.49 195.2 365.4C193.14 364.24 192.41 361.63 193.57 359.57C215.66 320.28 279.83 206.13 301.92 166.84C303.08 164.78 305.69 164.04 307.75 165.2C311.47 167.3 318.91 171.48 322.64 173.57Z" id="b4AyOdabb"></path><path d="M208.11 199.25C206.74 201.17 207.2 203.85 209.12 205.22C245.87 231.32 352.63 307.15 389.38 333.25C391.31 334.62 393.98 334.17 395.35 332.24C397.82 328.76 402.77 321.8 405.24 318.31C406.61 316.39 406.16 313.72 404.23 312.35C367.48 286.24 260.72 210.41 223.97 184.31C222.05 182.94 219.37 183.39 218 185.32C215.53 188.8 210.59 195.76 208.11 199.25Z" id="dPf9LvQck"></path><path d="M222.16 103.16L258.21 95.08L266.29 131.13L230.24 139.21L222.16 103.16Z" id="eYmpJd8ZY"></path><path d="M248.53 40.97C253.43 39.87 258.29 42.95 259.39 47.85C261.75 58.35 266.82 80.99 269.18 91.49C270.27 96.39 267.19 101.25 262.29 102.35C252.38 104.57 231.49 109.26 221.57 111.48C216.67 112.58 211.81 109.5 210.71 104.6C208.36 94.09 203.29 71.46 200.93 60.95C199.83 56.06 202.91 51.19 207.81 50.1C217.73 47.87 238.62 43.19 248.53 40.97Z" id="h42FaBtBp"></path><path d="M251.2 40C254.09 40.64 254.96 44.33 252.66 46.19C248.42 49.64 241.36 55.37 237.11 58.82C233.53 61.73 228.81 62.84 224.3 61.84C219.03 60.66 210.36 58.73 205.09 57.55C202.2 56.91 201.33 53.22 203.63 51.35C207.87 47.91 214.93 42.17 219.18 38.73C222.76 35.82 227.48 34.71 231.99 35.71C237.26 36.89 245.93 38.82 251.2 40Z" id="f24mNQNoF"></path><path d="M315.74 155.97C312.54 157.89 311.51 162.05 313.44 165.24C336.45 203.43 401.98 312.2 424.99 350.39C426.92 353.58 431.07 354.61 434.26 352.68C440.04 349.21 451.57 342.25 457.35 338.77C460.54 336.85 461.57 332.7 459.65 329.5C436.64 291.32 371.1 182.54 348.09 144.36C346.17 141.16 342.02 140.13 338.82 142.06C333.05 145.54 321.51 152.49 315.74 155.97Z" id="g1mX3Yz37"></path><path d="M451.85 305.45C466.19 302.24 480.43 311.26 483.64 325.61C491.91 362.5 510.9 447.22 519.18 484.12C522.39 498.46 513.37 512.7 499.02 515.91C432.49 530.83 258.85 569.75 192.32 584.67C177.97 587.88 163.74 578.86 160.52 564.52C152.25 527.62 133.26 442.9 124.99 406C121.77 391.66 130.8 377.42 145.14 374.21C211.68 359.29 385.31 320.37 451.85 305.45Z" id="eyHYRLIiF"></path><path d="M205.67 74.11L230.03 68.65L230.9 72.55L206.54 78.01L205.67 74.11Z" id="dHEIjPvvl"></path><path d="M208.3 85.82L232.65 80.36L233.53 84.26L209.17 89.72L208.3 85.82Z" id="c2S28xcN9V"></path><path d="M544.39 488.88C544.39 534.76 544.39 563.44 544.39 574.92C544.39 580.66 539.73 585.32 533.99 585.32C447.15 585.32 200.72 585.32 114.8 585.32C106.5 585.32 99.77 578.59 99.77 570.29C99.77 554.01 99.77 516.49 99.77 499.28C99.77 493.53 104.43 488.88 110.18 488.88C168.07 488.88 312.81 488.88 544.39 488.88Z" id="a2NyHwOdfN"></path><path d="M99.77 519.42L544.39 519.42C544.39 489.06 544.39 470.09 544.39 462.5C544.39 457.2 538.44 454.09 534.09 457.11C524.38 463.85 517.32 468.75 510.55 473.45C495.61 483.82 475.72 483.48 461.15 472.61C453.77 467.1 442.78 458.89 432.08 450.91C427.41 447.42 421.02 447.32 416.23 450.67C404.76 458.7 386.51 471.47 377.08 478.07C366.07 485.77 351.49 486.02 340.23 478.69C329.9 471.96 309.21 458.49 296.79 450.41C291.84 447.19 285.41 447.34 280.61 450.79C268.57 459.45 246.83 475.09 236.39 482.6C226.78 489.51 213.9 489.74 204.04 483.19C195.78 477.68 180.87 467.76 170.98 461.18C165.9 457.8 159.36 457.54 154.03 460.52C143.18 466.58 117.52 480.91 106.22 487.22C102.24 489.44 99.77 493.64 99.77 498.2C99.77 501.03 99.77 508.11 99.77 519.42Z" id="b2FOlpXar"></path></defs><g><g><g></g><g><use xlink:href="#bpWDWStKc" opacity="1" fill="#535c65" fill-opacity="1"></use></g><g><use xlink:href="#jvWS7HFMT" opacity="1" fill="#535c65" fill-opacity="1"></use></g><g><use xlink:href="#b4AyOdabb" opacity="1" fill="#535c65" fill-opacity="1"></use></g><g><use xlink:href="#dPf9LvQck" opacity="1" fill="#535c65" fill-opacity="1"></use></g><g><use xlink:href="#eYmpJd8ZY" opacity="1" fill="#535c65" fill-opacity="1"></use></g><g><use xlink:href="#h42FaBtBp" opacity="1" fill="#535c65" fill-opacity="1"></use></g><g><use xlink:href="#f24mNQNoF" opacity="1" fill="#535c65" fill-opacity="1"></use></g><g><use xlink:href="#g1mX3Yz37" opacity="1" fill="#535c65" fill-opacity="1"></use></g><g><use xlink:href="#eyHYRLIiF" opacity="1" fill="#535c65" fill-opacity="1"></use></g><g><use xlink:href="#dHEIjPvvl" opacity="1" fill="#898f95" fill-opacity="1"></use></g><g><use xlink:href="#c2S28xcN9V" opacity="1" fill="#898f95" fill-opacity="1"></use></g><g><g><use xlink:href="#a2NyHwOdfN" opacity="1" fill="#66acab" fill-opacity="1"></use></g><g><use xlink:href="#b2FOlpXar" opacity="1" fill="#66acab" fill-opacity="1"></use><g><use xlink:href="#b2FOlpXar" opacity="1" fill-opacity="0" stroke="#000000" stroke-width="0" stroke-opacity="1"></use></g></g></g></g></g></svg>